<?xml version="1.0" standalone="no"?>
<!DOCTYPE svg PUBLIC "-//W3C//DTD SVG 20010904//EN"
 "http://www.w3.org/TR/2001/REC-SVG-20010904/DTD/svg10.dtd">
<svg version="1.0" xmlns="http://www.w3.org/2000/svg"
 width="1024.000000pt" height="1024.000000pt" viewBox="0 0 1024.000000 1024.000000"
 preserveAspectRatio="xMidYMid meet">

<g transform="translate(0.000000,1024.000000) scale(0.100000,-0.100000)"
fill="#000000" stroke="none">
<path d="M5101 9264 c-6 -22 -55 -201 -110 -399 l-98 -360 -289 -2 c-159 -1
-305 -2 -324 -2 l-35 -1 47 -32 c25 -18 143 -103 262 -188 197 -142 214 -157
209 -180 -3 -14 -50 -167 -104 -340 -54 -173 -97 -316 -95 -317 2 -2 32 19 67
45 142 108 481 352 488 352 4 0 129 -90 277 -199 148 -109 270 -198 272 -196
2 1 -44 154 -101 339 l-105 336 37 28 c20 16 132 97 249 182 117 84 215 157
218 162 3 4 -137 8 -310 8 l-315 0 -11 43 c-65 247 -203 744 -210 751 -5 5
-13 -9 -19 -30z"/>
<path d="M921 8627 c-37 -85 -78 -215 -102 -327 -30 -141 -34 -482 -6 -630 63
-336 226 -686 455 -975 227 -287 579 -623 866 -828 37 -26 68 -53 70 -60 2 -6
9 -86 15 -177 40 -582 128 -1054 270 -1445 50 -140 79 -203 140 -312 80 -141
84 -141 46 2 -100 374 -171 878 -205 1450 -5 94 -15 410 -22 703 l-12 533
-106 88 c-210 174 -356 316 -532 516 -302 345 -547 759 -756 1283 -49 123 -91
225 -94 227 -2 2 -14 -20 -27 -48z"/>
<path d="M9245 8579 c-202 -544 -459 -995 -801 -1404 -111 -133 -361 -379
-503 -495 -170 -139 -151 -91 -151 -367 0 -274 -15 -791 -30 -1068 -32 -557
-109 -1062 -219 -1425 l-20 -65 25 30 c38 47 159 297 208 430 140 382 230 879
274 1504 l7 105 116 90 c645 504 1048 1001 1208 1492 70 214 86 318 85 559 0
177 -4 226 -23 314 -25 116 -81 293 -115 359 l-23 44 -38 -103z"/>
<path d="M4945 7125 c-66 -8 -167 -19 -225 -25 -743 -82 -1330 -198 -1820
-360 -122 -40 -243 -89 -259 -105 -12 -11 -14 -108 -14 -582 1 -1008 41 -1485
169 -1998 71 -287 152 -504 289 -774 184 -365 416 -701 735 -1066 142 -163
518 -538 665 -662 66 -56 159 -144 206 -195 138 -148 258 -207 425 -208 180 0
323 71 454 228 28 33 139 141 248 240 578 525 957 978 1239 1482 303 540 432
974 502 1685 33 327 42 556 48 1217 l6 628 -69 31 c-169 77 -594 200 -925 268
-324 67 -708 126 -1107 171 -340 38 -420 42 -567 25z m472 -340 c440 -40 902
-115 1319 -215 188 -45 414 -109 499 -141 l55 -20 0 -412 c-1 -854 -30 -1279
-120 -1709 -159 -764 -551 -1432 -1248 -2126 -123 -122 -227 -222 -231 -222
-4 0 -15 24 -24 54 -10 30 -39 87 -65 128 -115 175 -286 272 -482 272 -153 0
-279 -54 -396 -169 -57 -56 -81 -89 -118 -165 -25 -53 -46 -101 -46 -108 0 -7
-5 -12 -10 -12 -19 0 -474 462 -582 590 -513 611 -795 1180 -922 1860 -71 380
-87 612 -93 1382 -5 613 -5 636 13 646 31 16 284 90 452 132 443 110 935 193
1422 238 153 15 397 13 577 -3z m-320 -4502 c-3 -21 -24 -135 -46 -253 -35
-183 -44 -218 -63 -233 -13 -10 -79 -67 -147 -125 -159 -138 -171 -146 -181
-136 -25 26 -51 140 -51 224 0 198 89 377 237 475 65 43 173 84 223 85 33 0
34 0 28 -37z m166 17 c81 -25 173 -86 232 -153 93 -105 155 -290 140 -420 -9
-87 -46 -192 -66 -191 -15 1 -202 154 -306 250 l-42 39 -41 230 c-23 127 -44
238 -46 248 -7 24 45 23 129 -3z m71 -726 c111 -42 205 -79 210 -84 12 -12
-44 -89 -102 -141 -190 -171 -457 -171 -644 0 -54 49 -115 127 -106 136 10 10
405 164 422 164 11 1 110 -33 220 -75z"/>
<path d="M4878 6425 c-1 -5 -2 -32 -2 -60 l-1 -50 -62 1 c-35 1 -63 0 -63 -2
0 -8 66 -64 76 -64 5 0 15 -5 21 -11 9 -9 6 -17 -13 -31 -32 -25 -161 -90
-261 -132 -97 -40 -132 -83 -133 -162 0 -44 3 -52 25 -62 19 -9 36 -8 75 4 68
20 99 14 45 -10 -42 -18 -75 -44 -75 -58 0 -5 17 0 38 10 107 55 106 55 175
43 35 -6 92 -11 125 -10 77 2 86 -4 78 -53 -16 -100 -93 -235 -218 -383 -60
-70 -96 -101 -169 -147 -50 -32 -100 -58 -110 -58 -36 0 -126 51 -202 115 -90
75 -131 88 -184 59 -37 -19 -73 -63 -73 -88 0 -8 -13 -30 -29 -49 -51 -57
-211 -391 -211 -439 0 -16 -9 -57 -21 -91 -19 -57 -22 -128 -5 -145 9 -8 54
18 99 59 44 38 43 37 37 157 -3 42 36 162 52 162 5 0 8 -39 7 -87 -2 -130 -1
-143 21 -242 11 -50 20 -108 20 -128 0 -27 21 -81 69 -179 68 -138 103 -184
141 -184 25 0 50 68 50 137 0 51 -3 58 -36 89 -19 19 -41 34 -48 34 -25 0
-117 351 -99 379 11 17 63 28 63 14 0 -5 17 -15 38 -22 20 -8 76 -40 125 -72
59 -39 102 -60 132 -65 39 -5 49 -13 82 -58 106 -145 319 -346 450 -421 84
-49 149 -107 174 -157 37 -72 19 -92 -26 -28 -15 22 -46 57 -69 78 -46 42
-134 98 -142 89 -11 -11 19 -189 47 -273 17 -52 56 -134 90 -189 59 -99 71
-142 46 -164 -16 -13 -118 -2 -277 29 -58 11 -127 20 -155 20 -27 1 -69 5 -92
9 -76 15 -213 -19 -213 -53 0 -36 112 -126 157 -126 13 0 43 10 66 22 39 20
47 20 123 10 44 -7 114 -12 155 -12 55 0 100 -8 169 -30 52 -16 111 -30 130
-30 36 0 100 32 100 50 0 6 -13 37 -29 68 -49 97 -63 223 -38 333 8 31 33 85
58 125 25 38 58 96 74 129 24 51 29 56 33 36 3 -17 -16 -64 -56 -141 -43 -82
-64 -136 -73 -184 -21 -124 9 -271 75 -371 19 -27 40 -66 46 -86 12 -33 11
-40 -10 -75 -49 -82 -166 -208 -205 -220 -34 -11 -67 -54 -62 -81 3 -19 -1
-27 -20 -34 -65 -24 -143 -111 -143 -158 0 -31 57 -45 122 -31 69 14 95 33
114 80 9 23 31 49 54 65 22 15 53 50 69 79 27 48 159 182 246 251 33 26 38 36
38 72 0 29 -10 57 -33 95 -18 29 -35 71 -38 93 -5 53 17 80 148 181 148 113
234 226 247 324 4 25 11 40 19 40 18 0 18 -69 0 -170 -8 -41 -12 -77 -10 -79
17 -19 74 98 74 152 0 23 4 36 10 32 15 -9 12 -123 -4 -175 -8 -25 -30 -79
-49 -120 -20 -41 -34 -76 -32 -78 16 -16 128 113 162 186 22 48 24 62 20 150
-2 53 -7 108 -11 122 -7 24 -7 24 18 -5 24 -28 76 -169 76 -207 0 -9 5 -20 10
-23 17 -10 12 180 -5 222 -8 19 -15 39 -15 43 0 5 24 22 54 39 61 35 125 101
154 158 40 78 45 145 21 327 -12 93 -18 182 -14 202 3 19 24 70 47 112 50 95
85 214 58 197 -5 -3 -18 -25 -28 -48 -22 -49 -102 -148 -139 -172 l-26 -17 8
48 c7 48 33 108 102 232 27 48 37 79 41 128 2 35 2 64 -1 64 -3 0 -17 -26 -32
-57 -14 -32 -53 -94 -85 -139 -33 -45 -65 -93 -71 -108 -7 -14 -15 -26 -19
-26 -12 0 8 135 28 192 20 56 79 155 107 178 27 22 16 31 -16 13 -48 -28 -131
-123 -161 -183 -28 -59 -48 -148 -48 -215 0 -23 16 -129 36 -236 44 -241 44
-309 -5 -412 -49 -102 -131 -161 -236 -169 l-39 -3 -17 62 c-9 35 -28 81 -43
103 -42 64 -174 190 -256 245 -165 110 -288 281 -298 416 -3 33 0 65 5 70 7 7
25 4 54 -6 135 -50 237 -80 246 -72 3 4 -16 16 -43 27 -27 12 -66 28 -86 37
-41 17 -52 38 -15 30 12 -3 44 -9 71 -13 69 -10 58 11 -33 60 -52 27 -69 41
-59 47 20 13 97 7 163 -13 33 -10 78 -18 100 -18 l39 0 -39 21 c-22 11 -69 32
-105 46 -76 29 -140 63 -140 75 0 10 -1 11 52 -8 27 -9 70 -14 104 -12 l59 3
-60 29 c-49 23 -57 30 -44 39 14 9 12 14 -15 38 -30 28 -30 28 -8 29 13 0 55
-14 94 -31 38 -17 73 -28 76 -24 4 4 -16 28 -44 53 -50 47 -57 53 -127 105
-45 34 -52 64 -9 41 15 -7 31 -14 35 -14 5 0 20 -9 33 -19 29 -23 152 -66 162
-57 3 4 -28 37 -68 74 -41 37 -81 76 -90 87 -8 10 -32 35 -52 55 -78 74 -22
68 110 -11 55 -33 106 -59 112 -57 13 4 -184 202 -229 229 -35 21 -38 39 -3
20 11 -6 46 -13 78 -17 33 -3 72 -10 87 -14 15 -5 35 -6 43 -3 11 4 -4 17 -48
41 -35 19 -79 49 -97 65 l-35 30 35 -6 c18 -4 65 -10 103 -13 86 -9 83 6 -6
31 -73 20 -148 61 -148 80 0 8 -7 18 -16 23 -12 7 -13 11 -5 16 7 4 22 1 35
-7 12 -8 40 -20 62 -26 119 -31 173 -43 184 -39 11 3 -107 88 -123 88 -21 0
-197 92 -192 100 8 12 67 13 120 0 22 -5 41 -7 43 -5 10 10 -86 47 -169 65
-51 11 -95 24 -99 29 -8 14 -99 33 -121 26 -11 -4 -21 1 -28 14 -16 29 -92
101 -108 101 -7 0 -16 0 -20 0 -8 0 -10 -8 -12 -52 0 -16 -6 -28 -12 -28 -17
0 -72 62 -92 101 -9 19 -17 30 -19 24z m50 -287 c-6 -18 -55 -40 -76 -36 -13
3 -9 9 18 26 39 24 64 28 58 10z m-158 -29 c-53 -42 -160 -88 -160 -68 0 5 7
9 15 9 15 0 122 55 140 71 5 5 14 9 20 9 5 0 -1 -9 -15 -21z m488 -121 c-6
-18 -28 -21 -28 -4 0 9 7 16 16 16 9 0 14 -5 12 -12z m-698 -44 c0 -14 -48
-39 -57 -30 -3 2 3 18 12 36 13 26 19 29 31 19 8 -6 14 -18 14 -25z m360 -29
c0 -17 -35 -21 -45 -5 -3 6 1 7 9 4 9 -3 16 -1 16 5 0 6 5 11 10 11 6 0 10 -7
10 -15z m128 -44 c-2 -14 -8 -26 -14 -28 -16 -5 -24 33 -11 46 8 8 4 11 -13
11 -19 0 -21 3 -11 9 22 14 52 -10 49 -38z m11 -299 c-13 -47 -68 -128 -110
-161 -21 -16 -13 5 45 119 57 111 72 134 74 113 2 -15 -2 -46 -9 -71z m-986
-324 c-5 -9 -33 -11 -33 -2 0 3 5 15 12 27 11 21 11 21 18 2 4 -11 6 -23 3
-27z m803 -20 c12 -12 0 -14 -78 -13 -51 0 -102 -4 -113 -9 -19 -8 -19 -8 -3
9 38 40 159 48 194 13z m344 7 c0 -9 -6 -12 -15 -9 -8 4 -15 10 -15 15 0 5 7
9 15 9 8 0 15 -7 15 -15z m-1247 -50 c-9 -19 -23 -35 -30 -35 -17 0 -16 4 2
40 9 17 22 30 30 30 12 0 12 -5 -2 -35z m132 -52 c20 -48 78 -109 128 -135 22
-10 36 -22 33 -25 -3 -3 -53 2 -112 12 -102 17 -177 16 -219 -1 -14 -5 -10 4
16 32 19 22 52 65 73 97 21 31 44 57 52 57 7 0 21 -17 29 -37z m182 -59 c-7
-7 -37 7 -37 17 0 6 9 5 21 -1 11 -7 19 -14 16 -16z m151 -11 c-14 -16 -32
-41 -39 -57 -8 -16 -25 -36 -39 -45 l-24 -16 19 33 c28 47 84 112 98 112 6 0
-1 -12 -15 -27z m733 -298 c14 -38 40 -79 73 -114 44 -46 47 -52 21 -38 -74
38 -138 143 -150 249 -10 80 6 96 21 22 7 -32 22 -86 35 -119z m-1019 16 c75
-26 102 -41 92 -51 -5 -5 -36 4 -69 20 -33 16 -65 30 -72 30 -14 0 -29 20 -15
20 5 0 34 -9 64 -19z m-177 -135 c19 -73 18 -79 -5 -36 -11 19 -19 50 -20 69
0 46 7 36 25 -33z m794 -270 c94 -99 169 -181 166 -184 -7 -8 -57 28 -120 88
-33 31 -82 76 -108 100 -49 45 -137 154 -137 172 0 26 42 -11 199 -176z m1439
36 c6 -105 -9 -159 -60 -217 -40 -45 -95 -82 -105 -71 -4 3 17 30 44 59 83 87
88 103 88 250 0 119 1 126 14 95 8 -18 16 -70 19 -116z m-868 -72 c0 -5 -11
-15 -25 -22 -13 -7 -36 -28 -49 -47 -22 -30 -26 -32 -32 -16 -10 26 6 47 56
73 51 25 50 25 50 12z m-1210 -160 c0 -5 -7 -10 -16 -10 -8 0 -12 5 -9 10 3 6
10 10 16 10 5 0 9 -4 9 -10z m1610 -181 c0 -5 -5 -31 -12 -57 l-12 -47 -8 49
c-4 28 -5 53 -2 58 7 12 34 10 34 -3z m-510 -241 c-10 -29 -26 -66 -34 -83
l-16 -30 0 38 c0 35 18 84 42 115 22 27 26 9 8 -40z m-360 -309 c27 -6 50 -15
50 -20 0 -5 -1 -9 -2 -9 -17 0 -172 31 -176 35 -9 9 76 5 128 -6z m366 -368
c-39 -52 -90 -101 -107 -101 -6 0 22 36 62 80 40 44 75 78 77 75 2 -2 -12 -27
-32 -54z m-294 -323 c-9 -9 -15 -9 -24 0 -9 9 -7 12 12 12 19 0 21 -3 12 -12z"/>
<path d="M741 6813 c-20 -69 -33 -226 -27 -313 35 -521 349 -981 904 -1327 91
-57 269 -154 300 -164 7 -2 33 -73 58 -158 122 -419 304 -807 503 -1076 78
-105 202 -248 208 -241 3 3 -18 45 -45 93 -153 266 -309 675 -407 1060 -66
265 -108 513 -142 837 -15 147 -19 170 -37 182 -239 164 -387 278 -604 463
-163 139 -455 422 -595 576 -50 55 -94 101 -98 103 -4 2 -13 -14 -18 -35z"/>
<path d="M9377 6743 c-271 -306 -713 -694 -1097 -963 -58 -40 -109 -77 -113
-80 -5 -4 -13 -54 -18 -111 -64 -710 -222 -1289 -505 -1857 -51 -103 -91 -188
-90 -190 9 -8 206 234 273 335 90 134 229 408 300 588 29 72 80 222 115 334
l63 203 80 40 c296 149 598 378 780 591 254 298 393 694 356 1019 -13 116 -30
198 -40 198 -5 0 -51 -48 -104 -107z"/>
<path d="M9310 5308 c-276 -151 -483 -251 -861 -416 l-47 -20 -37 -113 c-116
-352 -296 -710 -496 -991 -124 -173 -228 -295 -483 -566 l-41 -43 40 16 c201
83 466 276 623 454 130 147 266 344 351 510 44 85 56 101 75 101 13 0 71 16
128 36 299 104 543 298 712 567 62 100 104 195 141 323 22 76 49 215 42 220
-1 1 -67 -34 -147 -78z"/>
<path d="M786 5338 c4 -24 15 -80 25 -124 103 -453 486 -845 942 -963 l72 -18
63 -114 c237 -425 518 -719 855 -894 59 -31 112 -55 118 -53 6 2 -40 58 -103
123 -279 294 -413 472 -582 777 -128 233 -235 476 -316 721 -13 41 -30 73 -43
82 -12 7 -94 44 -182 81 -160 68 -552 262 -740 368 -55 31 -103 56 -108 56 -4
0 -4 -19 -1 -42z"/>
<path d="M1160 4154 c0 -16 68 -116 130 -189 136 -163 339 -300 558 -379 78
-28 280 -80 352 -92 l44 -7 -79 84 c-103 110 -225 263 -293 369 -30 47 -58 88
-62 93 -3 4 -82 20 -176 37 -151 26 -391 71 -451 85 -13 3 -23 2 -23 -1z"/>
<path d="M8960 4134 c-63 -13 -207 -40 -320 -59 -113 -20 -208 -39 -211 -43
-4 -4 -33 -47 -66 -97 -76 -114 -175 -238 -282 -354 -46 -50 -78 -91 -72 -91
34 0 230 46 326 77 229 73 414 183 574 342 81 80 191 221 191 245 0 9 -13 7
-140 -20z"/>
</g>
</svg>
